# xmcd CD database file
#
# Track frame offsets:
#	150
#	27325
#	50262
#	80030
#	105612
#	138150
#	148137
#	170925
#	188725
#	212850
#
# Disc length: 3080 seconds
#
# Revision: 5
# Processed by: cddbd v1.5.2PL0 Copyright (c) Steve Scherf et al.
# Submitted via: CDex 1.70beta2
#
DISCID=930c060a
DTITLE=宗次郎 - 水心
DYEAR=1993
DGENRE=Folk
TTITLE0=春の土
TTITLE1=水の旅人
TTITLE2=悲しい水
TTITLE3=水の妖精
TTITLE4=静なる湿原
TTITLE5=水心
TTITLE6=生きている水
TTITLE7=雪どけの里
TTITLE8=海にゆられて
TTITLE9=水と土への祈り
EXTD=YEAR: 1993
EXTT0=
EXTT1=
EXTT2=
EXTT3=
EXTT4=
EXTT5=
EXTT6=
EXTT7=
EXTT8=
EXTT9=
PLAYORDER=
